<?xml version="1.0" standalone="no"?>
 <!DOCTYPE svg PUBLIC "-//W3C//DTD SVG 1.1//EN" 
 "http://www.w3.org/Graphics/SVG/1.1/DTD/svg11.dtd"> 
<svg
  xmlns:svg="http://www.w3.org/2000/svg"
  xmlns="http://www.w3.org/2000/svg"
  xmlns:xlink="http://www.w3.org/1999/xlink"
  version="1.1"
  width="210.0072mm" height="148.0058mm" viewBox="0.0000 0.0000 210.0072 148.0058">
<title>SVG Image created as ch340_module-F_Cu.svg date 2024/12/31 15:06:56 </title>
  <desc>Image generated by PCBNEW </desc>
<g style="fill:#000000; fill-opacity:1.0000;stroke:#000000; stroke-opacity:1.0000;
stroke-linecap:round; stroke-linejoin:round;"
 transform="translate(0 0) scale(1 1)">
<path style="fill:#000000; fill-opacity:1.0000; stroke:none;fill-rule:evenodd;"
d="M 108.7572,62.1200
108.7572,60.3400
106.7572,60.3400
106.7572,62.1200
Z" /> 
<path style="fill:#000000; fill-opacity:1.0000; stroke:none;fill-rule:evenodd;"
d="M 108.7572,64.6600
108.7572,62.8800
106.7572,62.8800
106.7572,64.6600
Z" /> 
<path style="fill:#000000; fill-opacity:1.0000; stroke:none;fill-rule:evenodd;"
d="M 118.2872,64.6600
118.2872,62.8800
116.2872,62.8800
116.2872,64.6600
Z" /> 
<path style="fill:#000000; fill-opacity:1.0000; stroke:none;fill-rule:evenodd;"
d="M 118.2872,62.1200
118.2872,60.3400
116.2872,60.3400
116.2872,62.1200
Z" /> 
<path style="fill:#000000; fill-opacity:1.0000; stroke:none;fill-rule:evenodd;"
d="M 119.3072,63.1500
119.2115,63.1690
119.1304,63.2232
119.0762,63.3043
119.0572,63.4000
119.0572,64.1000
119.0762,64.1957
119.1304,64.2768
119.2115,64.3310
119.3072,64.3500
120.2072,64.3500
120.3029,64.3310
120.3840,64.2768
120.4382,64.1957
120.4572,64.1000
120.4572,63.4000
120.4382,63.3043
120.3840,63.2232
120.3029,63.1690
120.2072,63.1500
Z" /> 
<path style="fill:#000000; fill-opacity:1.0000; stroke:none;fill-rule:evenodd;"
d="M 119.3072,61.1500
119.2115,61.1690
119.1304,61.2232
119.0762,61.3043
119.0572,61.4000
119.0572,62.1000
119.0762,62.1957
119.1304,62.2768
119.2115,62.3310
119.3072,62.3500
120.2072,62.3500
120.3029,62.3310
120.3840,62.2768
120.4382,62.1957
120.4572,62.1000
120.4572,61.4000
120.4382,61.3043
120.3840,61.2232
120.3029,61.1690
120.2072,61.1500
Z" /> 
<path style="fill:#000000; fill-opacity:1.0000; stroke:none;fill-rule:evenodd;"
d="M 105.2072,61.9500
105.3029,61.9310
105.3840,61.8768
105.4382,61.7957
105.4572,61.7000
105.4572,61.0000
105.4382,60.9043
105.3840,60.8232
105.3029,60.7690
105.2072,60.7500
104.3072,60.7500
104.2115,60.7690
104.1304,60.8232
104.0762,60.9043
104.0572,61.0000
104.0572,61.7000
104.0762,61.7957
104.1304,61.8768
104.2115,61.9310
104.3072,61.9500
Z" /> 
<path style="fill:#000000; fill-opacity:1.0000; stroke:none;fill-rule:evenodd;"
d="M 105.2072,63.9500
105.3029,63.9310
105.3840,63.8768
105.4382,63.7957
105.4572,63.7000
105.4572,63.0000
105.4382,62.9043
105.3840,62.8232
105.3029,62.7690
105.2072,62.7500
104.3072,62.7500
104.2115,62.7690
104.1304,62.8232
104.0762,62.9043
104.0572,63.0000
104.0572,63.7000
104.0762,63.7957
104.1304,63.8768
104.2115,63.9310
104.3072,63.9500
Z" /> 
<path style="fill:#000000; fill-opacity:1.0000; stroke:none;fill-rule:evenodd;"
d="M 101.9072,69.9500
101.9262,70.0457
101.9804,70.1268
102.0615,70.1810
102.1572,70.2000
102.8572,70.2000
102.9529,70.1810
103.0340,70.1268
103.0882,70.0457
103.1072,69.9500
103.1072,69.0500
103.0882,68.9543
103.0340,68.8732
102.9529,68.8190
102.8572,68.8000
102.1572,68.8000
102.0615,68.8190
101.9804,68.8732
101.9262,68.9543
101.9072,69.0500
Z" /> 
<path style="fill:#000000; fill-opacity:1.0000; stroke:none;fill-rule:evenodd;"
d="M 99.9072,69.9500
99.9262,70.0457
99.9804,70.1268
100.0615,70.1810
100.1572,70.2000
100.8572,70.2000
100.9529,70.1810
101.0340,70.1268
101.0882,70.0457
101.1072,69.9500
101.1072,69.0500
101.0882,68.9543
101.0340,68.8732
100.9529,68.8190
100.8572,68.8000
100.1572,68.8000
100.0615,68.8190
99.9804,68.8732
99.9262,68.9543
99.9072,69.0500
Z" /> 
<path style="fill:#000000; fill-opacity:1.0000; stroke:none;fill-rule:evenodd;"
d="M 100.9447,66.1000
100.9561,66.1574
100.9886,66.2061
101.0373,66.2386
101.0947,66.2500
102.4697,66.2500
102.5271,66.2386
102.5758,66.2061
102.6083,66.1574
102.6197,66.1000
102.6197,65.8000
102.6083,65.7426
102.5758,65.6939
102.5271,65.6614
102.4697,65.6500
101.0947,65.6500
101.0373,65.6614
100.9886,65.6939
100.9561,65.7426
100.9447,65.8000
Z" /> 
<path style="fill:#000000; fill-opacity:1.0000; stroke:none;fill-rule:evenodd;"
d="M 100.9447,65.1000
100.9561,65.1574
100.9886,65.2061
101.0373,65.2386
101.0947,65.2500
102.4697,65.2500
102.5271,65.2386
102.5758,65.2061
102.6083,65.1574
102.6197,65.1000
102.6197,64.8000
102.6083,64.7426
102.5758,64.6939
102.5271,64.6614
102.4697,64.6500
101.0947,64.6500
101.0373,64.6614
100.9886,64.6939
100.9561,64.7426
100.9447,64.8000
Z" /> 
<path style="fill:#000000; fill-opacity:1.0000; stroke:none;fill-rule:evenodd;"
d="M 100.9447,64.1000
100.9561,64.1574
100.9886,64.2061
101.0373,64.2386
101.0947,64.2500
102.4697,64.2500
102.5271,64.2386
102.5758,64.2061
102.6083,64.1574
102.6197,64.1000
102.6197,63.8000
102.6083,63.7426
102.5758,63.6939
102.5271,63.6614
102.4697,63.6500
101.0947,63.6500
101.0373,63.6614
100.9886,63.6939
100.9561,63.7426
100.9447,63.8000
Z" /> 
<path style="fill:#000000; fill-opacity:1.0000; stroke:none;fill-rule:evenodd;"
d="M 100.9447,63.1000
100.9561,63.1574
100.9886,63.2061
101.0373,63.2386
101.0947,63.2500
102.4697,63.2500
102.5271,63.2386
102.5758,63.2061
102.6083,63.1574
102.6197,63.1000
102.6197,62.8000
102.6083,62.7426
102.5758,62.6939
102.5271,62.6614
102.4697,62.6500
101.0947,62.6500
101.0373,62.6614
100.9886,62.6939
100.9561,62.7426
100.9447,62.8000
Z" /> 
<path style="fill:#000000; fill-opacity:1.0000; stroke:none;fill-rule:evenodd;"
d="M 100.9447,62.1000
100.9561,62.1574
100.9886,62.2061
101.0373,62.2386
101.0947,62.2500
102.4697,62.2500
102.5271,62.2386
102.5758,62.2061
102.6083,62.1574
102.6197,62.1000
102.6197,61.8000
102.6083,61.7426
102.5758,61.6939
102.5271,61.6614
102.4697,61.6500
101.0947,61.6500
101.0373,61.6614
100.9886,61.6939
100.9561,61.7426
100.9447,61.8000
Z" /> 
<path style="fill:#000000; fill-opacity:1.0000; stroke:none;fill-rule:evenodd;"
d="M 95.6697,62.1000
95.6811,62.1574
95.7136,62.2061
95.7623,62.2386
95.8197,62.2500
97.1947,62.2500
97.2521,62.2386
97.3008,62.2061
97.3333,62.1574
97.3447,62.1000
97.3447,61.8000
97.3333,61.7426
97.3008,61.6939
97.2521,61.6614
97.1947,61.6500
95.8197,61.6500
95.7623,61.6614
95.7136,61.6939
95.6811,61.7426
95.6697,61.8000
Z" /> 
<path style="fill:#000000; fill-opacity:1.0000; stroke:none;fill-rule:evenodd;"
d="M 95.6697,63.1000
95.6811,63.1574
95.7136,63.2061
95.7623,63.2386
95.8197,63.2500
97.1947,63.2500
97.2521,63.2386
97.3008,63.2061
97.3333,63.1574
97.3447,63.1000
97.3447,62.8000
97.3333,62.7426
97.3008,62.6939
97.2521,62.6614
97.1947,62.6500
95.8197,62.6500
95.7623,62.6614
95.7136,62.6939
95.6811,62.7426
95.6697,62.8000
Z" /> 
<path style="fill:#000000; fill-opacity:1.0000; stroke:none;fill-rule:evenodd;"
d="M 95.6697,64.1000
95.6811,64.1574
95.7136,64.2061
95.7623,64.2386
95.8197,64.2500
97.1947,64.2500
97.2521,64.2386
97.3008,64.2061
97.3333,64.1574
97.3447,64.1000
97.3447,63.8000
97.3333,63.7426
97.3008,63.6939
97.2521,63.6614
97.1947,63.6500
95.8197,63.6500
95.7623,63.6614
95.7136,63.6939
95.6811,63.7426
95.6697,63.8000
Z" /> 
<path style="fill:#000000; fill-opacity:1.0000; stroke:none;fill-rule:evenodd;"
d="M 95.6697,65.1000
95.6811,65.1574
95.7136,65.2061
95.7623,65.2386
95.8197,65.2500
97.1947,65.2500
97.2521,65.2386
97.3008,65.2061
97.3333,65.1574
97.3447,65.1000
97.3447,64.8000
97.3333,64.7426
97.3008,64.6939
97.2521,64.6614
97.1947,64.6500
95.8197,64.6500
95.7623,64.6614
95.7136,64.6939
95.6811,64.7426
95.6697,64.8000
Z" /> 
<path style="fill:#000000; fill-opacity:1.0000; stroke:none;fill-rule:evenodd;"
d="M 95.6697,66.1000
95.6811,66.1574
95.7136,66.2061
95.7623,66.2386
95.8197,66.2500
97.1947,66.2500
97.2521,66.2386
97.3008,66.2061
97.3333,66.1574
97.3447,66.1000
97.3447,65.8000
97.3333,65.7426
97.3008,65.6939
97.2521,65.6614
97.1947,65.6500
95.8197,65.6500
95.7623,65.6614
95.7136,65.6939
95.6811,65.7426
95.6697,65.8000
Z" /> 
</g>
<g style="fill:#000000; fill-opacity:1.0000; stroke:none;">
<circle cx="122.7572" cy="61.6800" r="0.8500" /> 
<circle cx="122.7572" cy="64.2200" r="0.8500" /> 
<circle cx="122.7572" cy="66.7600" r="0.8500" /> 
<path style="fill:#000000; fill-opacity:1.0000; stroke:none;fill-rule:evenodd;"
d="M 121.9072,68.4500
121.9072,70.1500
123.6072,70.1500
123.6072,68.4500
Z" /> 
<path style="fill:#000000; fill-opacity:1.0000; stroke:none;fill-rule:evenodd;"
d="M 96.8072,69.0250
96.7882,68.9293
96.7340,68.8482
96.6529,68.7940
96.5572,68.7750
95.8822,68.7750
95.7865,68.7940
95.7054,68.8482
95.6512,68.9293
95.6322,69.0250
95.6322,69.9750
95.6512,70.0707
95.7054,70.1518
95.7865,70.2060
95.8822,70.2250
96.5572,70.2250
96.6529,70.2060
96.7340,70.1518
96.7882,70.0707
96.8072,69.9750
Z" /> 
<path style="fill:#000000; fill-opacity:1.0000; stroke:none;fill-rule:evenodd;"
d="M 98.8822,69.0250
98.8632,68.9293
98.8090,68.8482
98.7279,68.7940
98.6322,68.7750
97.9572,68.7750
97.8615,68.7940
97.7804,68.8482
97.7262,68.9293
97.7072,69.0250
97.7072,69.9750
97.7262,70.0707
97.7804,70.1518
97.8615,70.2060
97.9572,70.2250
98.6322,70.2250
98.7279,70.2060
98.8090,70.1518
98.8632,70.0707
98.8822,69.9750
Z" /> 
<path style="fill:#000000; fill-opacity:1.0000; stroke:none;fill-rule:evenodd;"
d="M 90.1072,62.9500
91.4072,62.9500
91.4072,61.3000
90.1072,61.3000
Z" /> 
<path style="fill:#000000; fill-opacity:1.0000; stroke:none;fill-rule:evenodd;"
d="M 92.5572,63.7250
94.1072,63.7250
94.1072,62.3000
92.5572,62.3000
Z" /> 
<path style="fill:#000000; fill-opacity:1.0000; stroke:none;fill-rule:evenodd;"
d="M 89.8072,64.4500
91.7072,64.4500
91.7072,63.4500
89.8072,63.4500
Z" /> 
<path style="fill:#000000; fill-opacity:1.0000; stroke:none;fill-rule:evenodd;"
d="M 89.8072,67.5500
91.7072,67.5500
91.7072,65.7500
89.8072,65.7500
Z" /> 
<path style="fill:#000000; fill-opacity:1.0000; stroke:none;fill-rule:evenodd;"
d="M 92.5572,68.7000
94.1072,68.7000
94.1072,67.2750
92.5572,67.2750
Z" /> 
<path style="fill:#000000; fill-opacity:1.0000; stroke:none;fill-rule:evenodd;"
d="M 90.1072,69.7000
91.4072,69.7000
91.4072,68.0500
90.1072,68.0500
Z" /> 
<path style="fill:#000000; fill-opacity:1.0000; stroke:none;fill-rule:evenodd;"
d="M 92.7272,64.4250
94.1072,64.4250
94.1072,63.9750
92.7272,63.9750
Z" /> 
<path style="fill:#000000; fill-opacity:1.0000; stroke:none;fill-rule:evenodd;"
d="M 92.7272,65.0750
94.1072,65.0750
94.1072,64.6250
92.7272,64.6250
Z" /> 
<path style="fill:#000000; fill-opacity:1.0000; stroke:none;fill-rule:evenodd;"
d="M 92.7272,65.7250
94.1072,65.7250
94.1072,65.2750
92.7272,65.2750
Z" /> 
<path style="fill:#000000; fill-opacity:1.0000; stroke:none;fill-rule:evenodd;"
d="M 92.7272,66.3750
94.1072,66.3750
94.1072,65.9250
92.7272,65.9250
Z" /> 
<path style="fill:#000000; fill-opacity:1.0000; stroke:none;fill-rule:evenodd;"
d="M 92.7272,67.0250
94.1072,67.0250
94.1072,66.5750
92.7272,66.5750
Z" /> 
<path style="fill:#000000; fill-opacity:1.0000; stroke:none;fill-rule:evenodd;"
d="M 119.3072,68.1500
119.2115,68.1690
119.1304,68.2232
119.0762,68.3043
119.0572,68.4000
119.0572,69.1000
119.0762,69.1957
119.1304,69.2768
119.2115,69.3310
119.3072,69.3500
120.2072,69.3500
120.3029,69.3310
120.3840,69.2768
120.4382,69.1957
120.4572,69.1000
120.4572,68.4000
120.4382,68.3043
120.3840,68.2232
120.3029,68.1690
120.2072,68.1500
Z" /> 
<path style="fill:#000000; fill-opacity:1.0000; stroke:none;fill-rule:evenodd;"
d="M 119.3072,66.1500
119.2115,66.1690
119.1304,66.2232
119.0762,66.3043
119.0572,66.4000
119.0572,67.1000
119.0762,67.1957
119.1304,67.2768
119.2115,67.3310
119.3072,67.3500
120.2072,67.3500
120.3029,67.3310
120.3840,67.2768
120.4382,67.1957
120.4572,67.1000
120.4572,66.4000
120.4382,66.3043
120.3840,66.2232
120.3029,66.1690
120.2072,66.1500
Z" /> 
<path style="fill:#000000; fill-opacity:1.0000; stroke:none;fill-rule:evenodd;"
d="M 116.2872,68.8800
116.2872,70.6600
118.2872,70.6600
118.2872,68.8800
Z" /> 
<path style="fill:#000000; fill-opacity:1.0000; stroke:none;fill-rule:evenodd;"
d="M 116.2872,66.3400
116.2872,68.1200
118.2872,68.1200
118.2872,66.3400
Z" /> 
<path style="fill:#000000; fill-opacity:1.0000; stroke:none;fill-rule:evenodd;"
d="M 106.7572,66.3400
106.7572,68.1200
108.7572,68.1200
108.7572,66.3400
Z" /> 
<path style="fill:#000000; fill-opacity:1.0000; stroke:none;fill-rule:evenodd;"
d="M 106.7572,68.8800
106.7572,70.6600
108.7572,70.6600
108.7572,68.8800
Z" /> 
<path style="fill:#000000; fill-opacity:1.0000; stroke:none;fill-rule:evenodd;"
d="M 104.2822,68.4000
104.1865,68.4190
104.1054,68.4732
104.0512,68.5543
104.0322,68.6500
104.0322,69.3250
104.0512,69.4207
104.1054,69.5018
104.1865,69.5560
104.2822,69.5750
105.2322,69.5750
105.3279,69.5560
105.4090,69.5018
105.4632,69.4207
105.4822,69.3250
105.4822,68.6500
105.4632,68.5543
105.4090,68.4732
105.3279,68.4190
105.2322,68.4000
Z" /> 
<path style="fill:#000000; fill-opacity:1.0000; stroke:none;fill-rule:evenodd;"
d="M 104.2822,66.3250
104.1865,66.3440
104.1054,66.3982
104.0512,66.4793
104.0322,66.5750
104.0322,67.2500
104.0512,67.3457
104.1054,67.4268
104.1865,67.4810
104.2822,67.5000
105.2322,67.5000
105.3279,67.4810
105.4090,67.4268
105.4632,67.3457
105.4822,67.2500
105.4822,66.5750
105.4632,66.4793
105.4090,66.3982
105.3279,66.3440
105.2322,66.3250
Z" /> 
</g>
<g style="fill:none; 
stroke:#000000; stroke-width:0.3000; stroke-opacity:1; 
stroke-linecap:round; stroke-linejoin:round;">
<path d="M98.2072 67.2000
L98.2072 66.8000
" />
<path d="M94.6572 66.1500
L95.9072 67.4000
" />
<path d="M98.0072 67.4000
L98.2072 67.2000
" />
<path d="M93.4172 66.1500
L94.6572 66.1500
" />
<path d="M95.9072 67.4000
L98.0072 67.4000
" />
</g>
<g style="fill:none; 
stroke:#000000; stroke-width:0.5000; stroke-opacity:1; 
stroke-linecap:round; stroke-linejoin:round;">
<path d="M97.7072 64.9500
L98.2072 65.4500
" />
<path d="M98.2072 65.4500
L98.2072 66.8000
" />
<path d="M96.5072 64.9500
L97.7072 64.9500
" />
<path d="M99.2072 62.9500
L101.7822 62.9500
" />
<path d="M98.9072 67.9250
L99.2072 67.6250
" />
<path d="M99.2072 67.6250
L99.2072 62.9500
" />
<path d="M100.2072 60.8000
L99.2072 61.8000
" />
<path d="M103.0572 60.8000
L100.2072 60.8000
" />
<path d="M103.4072 61.1500
L103.0572 60.8000
" />
<path d="M103.4072 62.0500
L103.4072 61.1500
" />
<path d="M99.2072 61.8000
L99.2072 62.9500
" />
<path d="M106.2572 62.3500
L105.8072 62.3500
" />
<path d="M107.3772 61.2300
L106.2572 62.3500
" />
<path d="M107.7572 61.2300
L107.3772 61.2300
" />
</g>
<g style="fill:none; 
stroke:#000000; stroke-width:0.7000; stroke-opacity:1; 
stroke-linecap:round; stroke-linejoin:round;">
<path d="M120.2072 64.2000
L122.7372 64.2000
" />
<path d="M119.7572 63.7500
L120.2072 64.2000
" />
<path d="M122.7372 64.2000
L122.7572 64.2200
" />
</g>
<g style="fill:none; 
stroke:#000000; stroke-width:0.3000; stroke-opacity:1; 
stroke-linecap:round; stroke-linejoin:round;">
<path d="M95.2072 68.0000
L95.7572 68.0000
" />
<path d="M94.4572 67.2500
L95.2072 68.0000
" />
<path d="M94.4572 66.9250
L94.4572 67.2500
" />
<path d="M93.4172 66.8000
L94.3322 66.8000
" />
<path d="M94.3322 66.8000
L94.4572 66.9250
" />
</g>
<g style="fill:none; 
stroke:#000000; stroke-width:0.5000; stroke-opacity:1; 
stroke-linecap:round; stroke-linejoin:round;">
<path d="M98.8322 68.0000
L95.7572 68.0000
" />
<path d="M98.9072 67.9250
L98.8322 68.0000
" />
<path d="M98.2947 68.5375
L98.9072 67.9250
" />
<path d="M98.2947 68.5375
L98.2947 69.5000
" />
</g>
<g style="fill:none; 
stroke:#000000; stroke-width:0.2500; stroke-opacity:1; 
stroke-linecap:round; stroke-linejoin:round;">
<path d="M104.7572 66.9125
L104.7572 66.5000
" />
</g>
<g style="fill:none; 
stroke:#000000; stroke-width:0.5000; stroke-opacity:1; 
stroke-linecap:round; stroke-linejoin:round;">
<path d="M93.3922 64.1750
L93.4172 64.1750
" />
<path d="M93.3322 63.0125
L93.3322 64.1150
" />
<path d="M93.3322 64.1150
L93.3922 64.1750
" />
<path d="M101.7822 65.9500
L101.7822 66.7750
" />
<path d="M101.7822 66.7750
L103.9947 68.9875
" />
</g>
<g style="fill:none; 
stroke:#000000; stroke-width:0.2500; stroke-opacity:1; 
stroke-linecap:round; stroke-linejoin:round;">
<path d="M103.9947 68.9875
L104.7572 68.9875
" />
</g>
<g style="fill:none; 
stroke:#000000; stroke-width:0.7000; stroke-opacity:1; 
stroke-linecap:round; stroke-linejoin:round;">
<path d="M117.2872 69.7700
L117.7672 70.2500
" />
<path d="M121.9572 69.3000
L122.7572 69.3000
" />
<path d="M122.7572 69.3000
L122.3072 69.3000
" />
<path d="M117.7672 70.2500
L121.0072 70.2500
" />
<path d="M121.0072 70.2500
L121.9572 69.3000
" />
<path d="M122.3072 69.3000
L122.2572 69.2500
" />
</g>
<g style="fill:none; 
stroke:#000000; stroke-width:0.5000; stroke-opacity:1; 
stroke-linecap:round; stroke-linejoin:round;">
<path d="M120.2572 68.7500
L119.7572 68.7500
" />
<path d="M119.7572 68.7500
L119.2572 68.7500
" />
<path d="M122.2472 66.7600
L120.2572 68.7500
" />
<path d="M117.7372 67.2300
L117.2872 67.2300
" />
<path d="M122.7572 66.7600
L122.2472 66.7600
" />
<path d="M119.2572 68.7500
L117.7372 67.2300
" />
</g>
<g style="fill:none; 
stroke:#000000; stroke-width:0.7000; stroke-opacity:1; 
stroke-linecap:round; stroke-linejoin:round;">
<path d="M119.7672 66.7600
L119.7572 66.7500
" />
</g>
<g style="fill:none; 
stroke:#000000; stroke-width:0.3000; stroke-opacity:1; 
stroke-linecap:round; stroke-linejoin:round;">
<path d="M94.7572 65.5000
L93.4172 65.5000
" />
<path d="M95.2072 65.9500
L94.7572 65.5000
" />
<path d="M96.5072 65.9500
L95.2072 65.9500
" />
</g>
<g style="fill:none; 
stroke:#000000; stroke-width:0.7000; stroke-opacity:1; 
stroke-linecap:round; stroke-linejoin:round;">
<path d="M119.2572 61.7500
L119.7572 61.7500
" />
<path d="M118.7372 61.2300
L119.2572 61.7500
" />
<path d="M117.2872 61.2300
L118.7372 61.2300
" />
</g>
<g style="fill:none; 
stroke:#000000; stroke-width:0.2500; stroke-opacity:1; 
stroke-linecap:round; stroke-linejoin:round;">
<path d="M104.7572 63.3500
L104.3072 63.3500
" />
</g>
<g style="fill:none; 
stroke:#000000; stroke-width:0.5000; stroke-opacity:1; 
stroke-linecap:round; stroke-linejoin:round;">
<path d="M103.9072 64.9500
L104.7572 64.1000
" />
<path d="M105.8572 63.3500
L104.7572 63.3500
" />
<path d="M107.7572 63.7700
L106.2772 63.7700
" />
<path d="M101.7822 64.9500
L103.9072 64.9500
" />
<path d="M104.7572 64.1000
L104.7572 63.3500
" />
<path d="M106.2772 63.7700
L105.8572 63.3500
" />
<path d="M103.2572 70.2500
L107.2772 70.2500
" />
<path d="M102.5072 69.5000
L103.2572 70.2500
" />
</g>
<g style="fill:none; 
stroke:#000000; stroke-width:0.3000; stroke-opacity:1; 
stroke-linecap:round; stroke-linejoin:round;">
<path d="M107.2772 70.2500
L107.7572 69.7700
" />
</g>
<g style="fill:none; 
stroke:#000000; stroke-width:0.5000; stroke-opacity:1; 
stroke-linecap:round; stroke-linejoin:round;">
<path d="M101.7822 63.9500
L100.8072 63.9500
" />
<path d="M100.2572 64.5000
L100.2572 69.2500
" />
</g>
<g style="fill:none; 
stroke:#000000; stroke-width:0.2500; stroke-opacity:1; 
stroke-linecap:round; stroke-linejoin:round;">
<path d="M100.2572 69.2500
L100.5072 69.5000
" />
</g>
<g style="fill:none; 
stroke:#000000; stroke-width:0.5000; stroke-opacity:1; 
stroke-linecap:round; stroke-linejoin:round;">
<path d="M100.8072 63.9500
L100.2572 64.5000
" />
</g>
<g style="fill:none; 
stroke:#000000; stroke-width:0.3000; stroke-opacity:1; 
stroke-linecap:round; stroke-linejoin:round;">
<path d="M105.8072 62.3500
L103.7072 62.3500
" />
<path d="M103.7072 62.3500
L103.4072 62.0500
" />
<path style="fill:#000000; fill-opacity:1.0000; stroke:none;fill-rule:evenodd;"
d="M 114.3142,59.5202
114.2684,59.5730
114.2572,59.6245
114.2572,59.6635
114.2769,59.7305
114.3297,59.7763
114.3491,59.7833
114.3504,59.7836
114.4645,59.8495
114.4645,59.8495
114.5577,59.9427
114.5577,59.9427
114.6236,60.0568
114.6577,60.1841
114.6577,70.8159
114.6236,70.9432
114.6072,70.9717
114.5577,71.0573
114.4645,71.1505
114.3504,71.2164
114.3491,71.2167
114.3482,71.2173
114.3429,71.2195
114.3432,71.2203
114.2895,71.2531
114.2589,71.3159
114.2572,71.3365
114.2572,71.3755
114.2769,71.4425
114.3297,71.4883
114.3812,71.4995
124.3827,71.4995
124.4497,71.4798
124.4955,71.4270
124.5067,71.3755
124.5067,64.2200
124.0125,64.2200
124.0002,64.3604
123.9934,64.4380
123.9934,64.4380
123.9368,64.6493
123.9368,64.6493
123.9368,64.6493
123.9123,64.7017
123.8443,64.8476
123.8192,64.8835
123.7188,65.0269
123.5641,65.1816
123.3848,65.3071
123.3848,65.3071
123.2336,65.3776
123.1812,65.4238
123.1620,65.4910
123.1822,65.5579
123.2336,65.6024
123.3848,65.6729
123.3848,65.6729
123.5641,65.7984
123.7188,65.9531
123.8443,66.1324
123.8443,66.1324
123.9368,66.3307
123.9368,66.3307
123.9934,66.5420
123.9934,66.5420
124.0125,66.7600
124.0125,66.7600
123.9934,66.9780
123.9934,66.9780
123.9368,67.1893
123.9368,67.1893
123.9368,67.1893
123.9036,67.2606
123.8443,67.3876
123.8443,67.3876
123.7188,67.5669
123.5641,67.7216
123.4179,67.8239
123.3743,67.8785
123.3671,67.9480
123.3986,68.0104
123.4589,68.0458
123.4891,68.0495
123.6387,68.0495
123.7197,68.0623
123.7325,68.0644
123.8455,68.1219
123.8455,68.1220
123.8455,68.1220
123.9352,68.2117
123.9352,68.2117
123.9928,68.3247
124.0077,68.4185
124.0077,70.1815
123.9969,70.2495
123.9928,70.2753
123.9352,70.3883
123.9352,70.3883
123.9352,70.3883
123.8455,70.4780
123.8455,70.4780
123.8455,70.4780
123.7325,70.5356
123.7325,70.5356
123.6387,70.5505
123.6387,70.5505
121.8757,70.5505
121.8757,70.5505
121.8686,70.5494
121.8452,70.5457
121.7759,70.5546
121.7381,70.5805
121.4856,70.8330
121.4561,70.8526
121.4119,70.8822
121.3627,70.9151
121.3627,70.9151
121.3627,70.9151
121.3627,70.9151
121.2261,70.9717
121.2261,70.9717
121.2261,70.9717
121.2261,70.9717
121.0811,71.0005
121.0811,71.0005
121.0811,71.0005
120.9333,71.0005
118.5309,71.0005
118.4746,71.0140
118.4125,71.0456
118.3187,71.0605
118.3187,71.0605
116.2557,71.0605
116.1619,71.0456
116.0489,70.9881
115.9591,70.8983
115.9016,70.7853
115.9016,70.7853
115.9016,70.7853
115.8867,70.6915
115.8867,70.6915
115.8867,68.8485
115.9016,68.7547
115.9591,68.6417
115.9592,68.6417
115.9592,68.6417
116.0131,68.5877
116.0466,68.5264
116.0416,68.4567
116.0131,68.4123
115.9592,68.3583
115.9591,68.3583
115.9016,68.2453
115.9016,68.2453
115.9016,68.2453
115.8867,68.1515
115.8867,68.1515
115.8867,66.3085
115.9016,66.2147
115.9591,66.1017
115.9592,66.1017
115.9592,66.1017
116.0489,66.0120
116.0489,66.0120
116.0489,66.0119
116.1257,65.9728
116.1619,65.9544
116.2557,65.9395
118.3187,65.9395
118.3997,65.9523
118.4125,65.9544
118.5255,66.0119
118.5255,66.0120
118.5255,66.0120
118.6152,66.1017
118.6152,66.1017
118.6152,66.1017
118.6344,66.1393
118.6728,66.2147
118.6877,66.3085
118.6877,67.2092
118.7074,67.2762
118.7240,67.2969
119.1410,67.7138
119.2023,67.7473
119.2384,67.7497
119.2415,67.7495
119.2415,67.7495
120.2729,67.7495
120.2729,67.7495
120.2729,67.7495
120.2760,67.7497
120.3444,67.7354
120.3734,67.7138
121.4886,66.5986
121.5207,66.5430
121.5210,66.5420
121.5210,66.5420
121.5776,66.3307
121.6701,66.1324
121.6701,66.1324
121.6701,66.1324
121.7956,65.9531
121.8092,65.9395
121.9503,65.7984
122.1296,65.6729
122.2808,65.6024
122.3332,65.5562
122.3524,65.4890
122.3322,65.4221
122.2808,65.3776
122.1296,65.3071
121.9503,65.1816
121.7956,65.0269
121.7791,65.0034
121.7246,64.9598
121.6776,64.9505
120.1333,64.9505
120.0357,64.9311
119.9883,64.9217
119.8517,64.8651
119.8025,64.8322
119.7288,64.7830
119.7288,64.7829
119.7241,64.7791
119.7223,64.7812
119.6713,64.7533
119.6450,64.7505
119.2415,64.7505
119.2415,64.7505
119.2046,64.7476
119.2046,64.7476
119.2046,64.7476
119.1630,64.7355
119.0468,64.7017
118.9053,64.6181
118.7891,64.5019
118.7055,64.3604
118.6596,64.2026
118.6567,64.1657
118.6567,63.3343
118.6596,63.2974
118.6709,63.2584
118.7055,63.1396
118.7055,63.1396
118.7055,63.1396
118.7891,62.9981
118.7891,62.9981
118.7891,62.9981
118.9053,62.8819
118.9053,62.8819
118.9479,62.8567
118.9956,62.8057
119.0081,62.7369
118.9815,62.6723
118.9479,62.6433
118.9458,62.6420
118.9053,62.6181
118.7891,62.5019
118.7525,62.4400
118.7015,62.3923
118.6327,62.3798
118.5681,62.4065
118.5581,62.4155
118.5255,62.4480
118.5255,62.4480
118.5255,62.4480
118.4199,62.5019
118.4125,62.5056
118.3187,62.5205
118.3187,62.5205
116.2557,62.5205
116.1619,62.5056
116.0489,62.4480
115.9591,62.3583
115.9016,62.2453
115.9016,62.2453
115.9016,62.2453
115.8867,62.1515
115.8867,62.1515
115.8867,60.3085
115.9016,60.2147
115.9591,60.1017
115.9592,60.1017
115.9592,60.1017
116.0489,60.0120
116.0489,60.0120
116.0489,60.0119
116.1257,59.9728
116.1619,59.9544
116.2557,59.9395
118.3187,59.9395
118.3997,59.9523
118.4125,59.9544
118.5255,60.0119
118.5255,60.0120
118.5255,60.0120
118.6152,60.1017
118.6152,60.1017
118.6728,60.2147
118.6877,60.3085
118.6877,60.3555
118.7074,60.4225
118.7602,60.4683
118.8051,60.4781
118.8051,60.4789
118.8111,60.4795
118.9561,60.5083
118.9561,60.5083
119.0927,60.5649
119.0927,60.5649
119.1419,60.5978
119.2156,60.6470
119.2156,60.6470
119.2487,60.6801
119.2818,60.7132
119.3431,60.7467
119.3694,60.7495
120.2729,60.7495
120.3098,60.7524
120.3098,60.7524
120.4676,60.7983
120.4676,60.7983
120.6091,60.8819
120.6091,60.8819
120.7253,60.9981
120.7253,60.9981
120.8089,61.1396
120.8089,61.1396
120.8548,61.2974
120.8548,61.2974
120.8577,61.3343
120.8577,62.1657
120.8548,62.2026
120.8548,62.2026
120.8089,62.3604
120.8089,62.3604
120.7253,62.5019
120.7253,62.5019
120.6091,62.6181
120.6091,62.6181
120.6091,62.6181
120.5682,62.6423
120.5665,62.6433
120.5188,62.6943
120.5063,62.7631
120.5329,62.8277
120.5665,62.8567
120.6091,62.8819
120.6091,62.8819
120.7253,62.9981
120.7253,62.9981
120.8089,63.1396
120.8089,63.1396
120.8548,63.2974
120.8548,63.2974
120.8578,63.3352
120.8827,63.4005
120.9389,63.4420
120.9814,63.4495
121.7079,63.4495
121.7749,63.4298
121.7955,63.4132
121.8082,63.4005
121.9503,63.2584
122.1200,63.1396
122.1296,63.1329
122.2287,63.0867
122.3279,63.0404
122.3279,63.0404
122.3279,63.0404
122.5392,62.9838
122.7572,62.9647
122.7572,62.9647
122.9025,62.9774
122.9752,62.9838
122.9752,62.9838
123.1865,63.0404
123.1865,63.0404
123.3848,63.1329
123.3848,63.1329
123.5641,63.2584
123.7188,63.4131
123.8443,63.5924
123.8443,63.5924
123.9368,63.7907
123.9368,63.7907
123.9934,64.0020
123.9934,64.0020
124.0110,64.2026
124.0125,64.2200
124.5067,64.2200
124.5067,59.6245
124.4870,59.5575
124.4342,59.5117
124.3827,59.5005
114.3812,59.5005
Z" /> 
<path style="fill:#000000; fill-opacity:1.0000; stroke:none;fill-rule:evenodd;"
d="M 88.8777,59.5202
88.8320,59.5730
88.8220,59.6421
88.8511,59.7057
88.8760,59.7277
88.9412,59.7711
89.0181,59.8224
89.0249,59.8266
89.0645,59.8495
89.0645,59.8495
89.0674,59.8524
89.0863,59.8678
89.0897,59.8701
89.0897,59.8701
89.1199,59.9045
89.1253,59.9103
89.1577,59.9427
89.1597,59.9462
89.1740,59.9660
89.1766,59.9691
89.1766,59.9691
89.1969,60.0101
89.2007,60.0172
89.2236,60.0568
89.2236,60.0568
89.2246,60.0607
89.2333,60.0836
89.2351,60.0872
89.2351,60.0872
89.2440,60.1321
89.2459,60.1399
89.2577,60.1841
89.2577,60.1841
89.2577,60.1882
89.2601,60.2125
89.2609,60.2165
89.2580,60.2621
89.2577,60.2701
89.2577,63.0599
89.2774,63.1269
89.3302,63.1727
89.3993,63.1826
89.4629,63.1536
89.4815,63.1335
89.4854,63.1282
89.6020,63.0421
89.6006,63.0402
89.6412,63.0007
89.6572,62.9398
89.6572,62.3500
90.5322,62.3500
90.5322,64.9000
89.7530,64.9000
89.7226,64.8971
89.5946,64.8523
89.4854,64.7718
89.4815,64.7665
89.4258,64.7242
89.3562,64.7187
89.2946,64.7518
89.2607,64.8129
89.2577,64.8401
89.2577,65.3599
89.2774,65.4269
89.3302,65.4727
89.3993,65.4826
89.4629,65.4536
89.4815,65.4335
89.4854,65.4282
89.5946,65.3477
89.7226,65.3028
89.7530,65.3000
90.5322,65.3000
90.5322,68.6500
89.6572,68.6500
89.6572,68.0602
89.6375,67.9931
89.6009,67.9595
89.6020,67.9579
89.4854,67.8718
89.4815,67.8665
89.4258,67.8242
89.3562,67.8187
89.2946,67.8518
89.2607,67.9129
89.2577,67.9401
89.2577,70.7299
89.2580,70.7379
89.2609,70.7835
89.2601,70.7875
89.2577,70.8118
89.2577,70.8159
89.2459,70.8601
89.2440,70.8679
89.2351,70.9128
89.2351,70.9128
89.2333,70.9164
89.2246,70.9393
89.2236,70.9432
89.2236,70.9432
89.2007,70.9828
89.1969,70.9899
89.1766,71.0309
89.1766,71.0309
89.1740,71.0339
89.1597,71.0538
89.1577,71.0573
89.1577,71.0573
89.1253,71.0897
89.1199,71.0955
89.0897,71.1299
89.0863,71.1321
89.0674,71.1476
89.0645,71.1505
89.0645,71.1505
89.0645,71.1505
89.0249,71.1734
89.0181,71.1776
88.8853,71.2661
88.8760,71.2723
88.8311,71.3259
88.8224,71.3952
88.8524,71.4583
88.9119,71.4950
88.9448,71.4995
94.3572,71.4995
94.3572,69.7542
91.8572,69.7542
91.8543,69.7846
91.8095,69.9126
91.7290,70.0218
91.6198,70.1023
91.4918,70.1471
91.4614,70.1500
90.9822,70.1500
90.5322,70.1500
90.0530,70.1500
90.0226,70.1471
89.8946,70.1023
89.7854,70.0218
89.7049,69.9126
89.6601,69.7846
89.6601,69.7846
89.6572,69.7542
89.6572,69.1000
90.5322,69.1000
90.5322,70.1500
90.9822,70.1500
90.9822,70.1500
90.9822,69.1000
91.8572,69.1000
91.8572,69.7542
94.3572,69.7542
94.3572,69.0748
94.3198,69.1023
94.3198,69.1023
94.1918,69.1471
94.1614,69.1500
93.5572,69.1500
93.1072,69.1500
92.5030,69.1500
92.4726,69.1471
92.3446,69.1023
92.2354,69.0218
92.1549,68.9126
92.1101,68.7846
92.1101,68.7846
92.1072,68.7542
92.1072,68.2125
93.1072,68.2125
93.1072,69.1500
93.5572,69.1500
93.5572,69.1500
93.5572,68.1115
93.5375,68.0445
93.4847,67.9987
93.4332,67.9875
93.3322,67.9875
93.3322,67.8865
93.3125,67.8195
93.2597,67.7737
93.2082,67.7625
92.1012,67.7625
92.0342,67.7822
91.9884,67.8350
91.9772,67.8865
91.9772,67.9100
91.9772,67.9100
91.9124,67.9579
91.9138,67.9598
91.8732,67.9993
91.8572,68.0602
91.8572,68.6500
90.9822,68.6500
90.9822,65.3000
91.7614,65.3000
91.7918,65.3029
91.9198,65.3477
92.0290,65.4282
92.1029,65.5284
92.1586,65.5706
92.2282,65.5761
92.2898,65.5430
92.3237,65.4819
92.3267,65.4548
92.3267,65.2435
92.3304,65.2201
92.3345,65.1944
92.3345,65.1556
92.3267,65.1065
92.3267,64.7452
92.3070,64.6782
92.2542,64.6324
92.1851,64.6225
92.1215,64.6515
92.1029,64.6716
92.0290,64.7718
91.9198,64.8523
91.7918,64.8971
91.7614,64.9000
90.9822,64.9000
90.9822,64.9000
90.9822,62.3500
91.8572,62.3500
91.8572,62.9398
91.8769,63.0069
91.9135,63.0405
91.9124,63.0421
91.9772,63.0900
91.9772,63.1135
91.9969,63.1805
92.0497,63.2263
92.1012,63.2375
93.2082,63.2375
93.2752,63.2178
93.3210,63.1650
93.3322,63.1135
93.3322,63.0125
93.4332,63.0125
93.5002,62.9928
93.5460,62.9400
93.5572,62.8885
93.5572,62.7875
93.1072,62.7875
92.1072,62.7875
92.1072,62.2458
92.1101,62.2154
92.1549,62.0874
92.2354,61.9782
92.3446,61.8977
92.4726,61.8528
92.5030,61.8500
93.1072,61.8500
93.1072,62.7875
93.5572,62.7875
93.5572,61.8500
94.1614,61.8500
94.1918,61.8529
94.3198,61.8977
94.3198,61.8977
94.3572,61.9252
94.3572,61.2458
91.8572,61.2458
91.8572,61.9000
90.9822,61.9000
90.5322,61.9000
89.6572,61.9000
89.6572,61.2458
89.6601,61.2154
89.7049,61.0874
89.7854,60.9782
89.8946,60.8977
90.0226,60.8528
90.0530,60.8500
90.5322,60.8500
90.5322,61.9000
90.9822,61.9000
90.9822,60.8500
91.4614,60.8500
91.4918,60.8529
91.6198,60.8977
91.7290,60.9782
91.8095,61.0874
91.8543,61.2154
91.8543,61.2154
91.8572,61.2458
94.3572,61.2458
94.3572,59.5005
88.9448,59.5005
Z" /> 
<path style="fill:#000000; fill-opacity:1.0000; stroke:none;fill-rule:evenodd;"
d="M 94.3572,64.3086
94.4352,64.3867
94.4352,64.3867
94.4352,64.3867
94.4525,64.4205
94.4928,64.4997
94.5077,64.5935
94.5077,64.5935
94.5077,64.5935
94.5077,64.7569
94.5077,64.8255
94.5274,64.8925
94.5802,64.9383
94.6317,64.9495
94.8297,64.9495
94.9347,64.9776
94.9697,64.9870
95.0832,65.0526
95.1511,65.0690
95.2171,65.0462
95.2603,64.9912
95.2692,64.9452
95.2692,64.7569
95.2692,64.7569
95.2798,64.6684
95.3353,64.5277
95.3353,64.5277
95.3353,64.5277
95.4268,64.4071
95.5474,64.3156
95.6497,64.2753
95.6881,64.2601
95.6881,64.2601
95.6881,64.2601
95.7338,64.2546
95.7766,64.2495
97.2378,64.2495
97.2710,64.2535
97.3263,64.2601
97.3647,64.2753
97.4042,64.2909
97.4497,64.2995
97.7713,64.2995
97.8969,64.3245
97.8969,64.3245
98.0124,64.3723
98.0124,64.3723
98.0153,64.3735
98.0153,64.3735
98.1219,64.4447
98.1219,64.4447
98.3450,64.6679
98.4063,64.7014
98.4760,64.6964
98.5320,64.6545
98.5564,64.5890
98.5567,64.5802
98.5567,61.7569
97.7452,61.7569
97.7452,62.1431
97.7413,62.1755
97.7346,62.2316
97.7346,62.2316
97.7346,62.2316
97.7170,62.2762
97.6791,62.3723
97.6770,62.3751
97.6759,62.3780
97.6749,62.3797
97.6752,62.3799
97.6522,62.4404
97.6666,62.5088
97.6770,62.5249
97.6791,62.5277
97.7346,62.6684
97.7397,62.7112
97.7452,62.7569
97.7452,63.1431
97.7396,63.1900
97.7346,63.2316
97.6791,63.3723
97.5876,63.4929
97.4670,63.5844
97.4670,63.5844
97.4670,63.5844
97.3263,63.6399
97.2378,63.6505
97.2378,63.6505
95.7766,63.6505
95.7766,63.6505
95.6881,63.6399
95.5474,63.5844
95.4268,63.4929
95.3353,63.3723
95.2798,63.2316
95.2692,63.1431
95.2692,62.7569
95.2798,62.6684
95.3353,62.5277
95.3374,62.5249
95.3385,62.5220
95.3395,62.5203
95.3392,62.5201
95.3622,62.4596
95.3478,62.3913
95.3374,62.3751
95.3353,62.3723
95.2798,62.2316
95.2692,62.1431
95.2692,61.7569
95.2798,61.6684
95.3353,61.5277
95.3353,61.5277
95.3353,61.5277
95.4268,61.4071
95.5474,61.3156
95.6881,61.2601
95.7338,61.2546
95.7766,61.2495
97.2378,61.2495
97.2768,61.2542
97.3263,61.2601
97.4670,61.3156
97.5876,61.4071
97.6791,61.5277
97.7346,61.6684
97.7405,61.7179
97.7452,61.7569
98.5567,61.7569
98.5567,61.7359
98.5817,61.6103
98.5817,61.6103
98.5817,61.6103
98.6159,61.5277
98.6159,61.5277
98.6307,61.4919
98.6307,61.4919
98.6307,61.4919
98.7019,61.3853
98.7019,61.3853
99.7925,60.2947
99.7925,60.2947
99.8991,60.2235
99.9204,60.2147
100.0175,60.1745
100.0175,60.1745
100.1431,60.1495
100.1431,60.1495
103.1213,60.1495
103.1213,60.1495
103.2469,60.1745
103.2469,60.1745
103.3440,60.2147
103.3440,60.2147
103.3653,60.2235
103.4719,60.2947
103.4719,60.2947
103.9125,60.7353
103.9125,60.7353
103.9226,60.7505
103.9226,60.7505
103.9226,60.7505
103.9837,60.8419
104.0327,60.9603
104.0327,60.9603
104.0577,61.0859
104.0577,61.6755
104.0774,61.7425
104.1302,61.7883
104.1817,61.7995
105.4226,61.7995
105.4896,61.7798
105.4915,61.7786
105.4991,61.7735
105.4991,61.7735
105.4991,61.7735
105.6175,61.7245
105.6175,61.7245
105.7431,61.6995
105.7431,61.6995
105.9364,61.6995
106.0034,61.6798
106.0241,61.6632
106.3204,61.3669
106.3539,61.3055
106.3567,61.2792
106.3567,60.3085
106.3567,60.3085
106.3716,60.2147
106.4291,60.1017
106.4292,60.1017
106.4292,60.1017
106.5189,60.0120
106.5189,60.0120
106.5189,60.0119
106.5957,59.9728
106.6319,59.9544
106.7257,59.9395
108.7887,59.9395
108.8697,59.9523
108.8825,59.9544
108.9955,60.0119
108.9955,60.0120
108.9955,60.0120
109.0852,60.1017
109.0852,60.1017
109.0853,60.1017
109.1428,60.2147
109.1428,60.2147
109.1577,60.3085
109.1577,62.1515
109.1539,62.1755
109.1428,62.2453
109.0853,62.3583
109.0852,62.3583
109.0852,62.3583
109.0313,62.4123
108.9978,62.4736
109.0028,62.5433
109.0313,62.5877
109.0852,62.6417
109.0852,62.6417
109.1428,62.7547
109.1577,62.8485
109.1577,64.6915
109.1473,64.7569
109.1428,64.7853
109.0853,64.8983
109.0852,64.8983
109.0852,64.8983
108.9955,64.9880
108.9955,64.9880
108.9955,64.9881
108.8825,65.0456
108.8825,65.0456
108.7887,65.0605
108.7887,65.0605
106.7257,65.0605
106.6319,65.0456
106.5189,64.9881
106.4291,64.8983
106.3716,64.7853
106.3716,64.7853
106.3716,64.7853
106.3567,64.6915
106.3567,64.5445
106.3370,64.4775
106.2842,64.4317
106.2327,64.4205
106.2131,64.4205
106.1286,64.4037
106.0875,64.3955
105.9691,64.3465
105.8625,64.2753
105.7949,64.2076
105.7336,64.1741
105.6639,64.1791
105.6195,64.2076
105.6091,64.2181
105.6091,64.2181
105.6091,64.2181
105.4676,64.3017
105.4521,64.3063
105.4226,64.3148
105.3637,64.3524
105.3427,64.3864
105.3389,64.3955
105.3341,64.4071
105.3337,64.4081
105.3337,64.4081
105.2625,64.5147
104.3219,65.4553
104.3219,65.4553
104.2153,65.5265
104.1460,65.5552
104.0969,65.5755
104.0969,65.5755
104.0969,65.5755
103.9713,65.6005
103.9713,65.6005
103.9713,65.6005
103.8431,65.6005
103.1412,65.6005
103.0742,65.6202
103.0284,65.6730
103.0181,65.7393
103.0202,65.7565
103.0202,65.7569
103.0202,66.1431
103.0146,66.1900
103.0096,66.2316
102.9541,66.3723
102.8626,66.4929
102.7420,66.5844
102.7370,66.5872
102.6882,66.6372
102.6742,66.7057
102.6994,66.7708
102.7101,66.7830
103.9340,68.0068
103.9953,68.0403
104.0563,68.0382
104.1796,68.0024
104.1796,68.0024
104.2165,67.9995
104.2165,67.9995
105.2979,67.9995
105.2979,67.9995
105.3348,68.0024
105.3348,68.0024
105.4926,68.0483
105.4926,68.0483
105.6341,68.1319
105.6341,68.1319
105.7503,68.2481
105.7503,68.2481
105.8339,68.3896
105.8339,68.3896
105.8798,68.5474
105.8798,68.5474
105.8827,68.5843
105.8827,69.3907
105.8798,69.4276
105.8798,69.4276
105.8759,69.4409
105.8761,69.5108
105.9141,69.5694
105.9777,69.5983
105.9950,69.5995
106.2327,69.5995
106.2997,69.5798
106.3455,69.5270
106.3567,69.4755
106.3567,68.8485
106.3629,68.8091
106.3716,68.7547
106.4291,68.6417
106.4292,68.6417
106.4292,68.6417
106.5189,68.5520
106.5189,68.5520
106.5189,68.5519
106.6105,68.5053
106.6319,68.4944
106.7257,68.4795
108.7887,68.4795
108.8697,68.4923
108.8825,68.4944
108.9955,68.5519
108.9955,68.5520
108.9955,68.5520
109.0852,68.6417
109.0852,68.6417
109.0853,68.6417
109.0992,68.6690
109.1428,68.7547
109.1577,68.8485
109.1577,70.6915
109.1476,70.7553
109.1428,70.7853
109.0853,70.8983
109.0852,70.8983
109.0852,70.8983
108.9955,70.9880
108.9955,70.9880
108.9955,70.9881
108.8825,71.0456
108.8825,71.0456
108.7887,71.0605
108.7887,71.0605
106.7257,71.0605
106.6319,71.0456
106.5189,70.9881
106.4676,70.9368
106.4063,70.9033
106.3799,70.9005
103.1931,70.9005
103.1086,70.8837
103.0675,70.8755
102.9491,70.8265
102.9332,70.8159
102.8425,70.7553
102.7241,70.6368
102.6628,70.6033
102.6364,70.6005
102.0915,70.6005
102.0915,70.6005
102.0546,70.5976
102.0546,70.5976
102.0546,70.5976
102.0130,70.5855
101.8968,70.5517
101.7553,70.4681
101.6391,70.3519
101.6139,70.3093
101.5629,70.2616
101.4941,70.2491
101.4295,70.2757
101.4005,70.3093
101.3753,70.3519
101.3753,70.3519
101.2591,70.4681
101.2591,70.4681
101.2591,70.4681
101.1176,70.5517
101.0760,70.5638
100.9598,70.5976
100.9598,70.5976
100.9598,70.5976
100.9229,70.6005
100.9229,70.6005
100.0915,70.6005
100.0915,70.6005
100.0546,70.5976
100.0546,70.5976
100.0546,70.5976
100.0130,70.5855
99.8968,70.5517
99.7553,70.4681
99.6391,70.3519
99.5555,70.2104
99.5174,70.0794
99.4798,70.0206
99.4163,69.9913
99.3471,70.0011
99.2942,70.0467
99.2793,70.0794
99.2339,70.2354
99.2339,70.2354
99.1503,70.3769
99.1503,70.3769
99.0341,70.4931
99.0341,70.4931
99.0341,70.4931
98.8926,70.5767
98.8510,70.5888
98.7348,70.6226
98.7348,70.6226
98.7348,70.6226
98.6979,70.6255
98.6979,70.6255
97.8915,70.6255
97.8915,70.6255
97.8546,70.6226
97.8546,70.6226
97.8546,70.6226
97.7786,70.6005
97.6968,70.5767
97.5553,70.4931
97.4391,70.3769
97.3555,70.2354
97.3096,70.0776
97.3067,70.0407
97.3067,68.9593
97.3096,68.9224
97.3311,68.8485
97.3425,68.8091
97.3423,68.7392
97.3044,68.6806
97.2407,68.6517
97.2235,68.6505
95.6931,68.6505
95.6086,68.6337
95.5675,68.6255
95.4491,68.5765
95.4415,68.5714
95.3748,68.5505
95.3726,68.5505
95.1347,68.5505
95.1347,68.5505
95.1347,68.5505
94.9947,68.5130
94.9814,68.5053
94.8692,68.4405
94.3572,67.9285
94.3572,71.4995
110.4832,71.4995
110.5502,71.4798
110.5960,71.4270
110.6072,71.3755
110.6072,71.3365
110.5875,71.2695
110.5347,71.2237
110.5153,71.2167
110.5140,71.2164
110.3999,71.1505
110.3067,71.0573
110.2408,70.9432
110.2067,70.8159
110.2067,60.1841
110.2408,60.0568
110.3067,59.9427
110.3999,59.8495
110.4658,59.8115
110.5140,59.7836
110.5140,59.7836
110.5153,59.7833
110.5163,59.7827
110.5215,59.7805
110.5212,59.7797
110.5750,59.7469
110.6055,59.6840
110.6072,59.6635
110.6072,59.6245
110.5875,59.5575
110.5347,59.5117
110.4832,59.5005
94.3572,59.5005
Z" /> 
</g>
<g style="fill:none; 
stroke:#000000; stroke-width:0.2500; stroke-opacity:1; 
stroke-linecap:round; stroke-linejoin:round;">
<path d="M88.0072 71.2500
L88.7572 70.7500
" />
<path d="M88.7572 70.7500
L88.7572 60.2500
" />
<path d="M123.5072 59.0000
L125.0072 59.0000
" />
<path d="M123.5072 59.0000
L88.0072 59.0000
" />
<path d="M88.0072 59.7500
L88.0072 59.2500
" />
<path d="M125.0072 72.0000
L125.0072 71.7500
" />
<path d="M88.0072 72.0000
L123.5072 72.0000
" />
<path d="M88.0072 71.7500
L88.0072 71.2500
" />
<path style="fill:none; 
stroke:#000000; stroke-width:0.2500; stroke-opacity:1; 
stroke-linecap:round; stroke-linejoin:round;fill:none"
d="M 114.1572,60.2500
110.7072,60.2500
110.7072,70.7500
114.1572,70.7500
Z" /> 
<path d="M125.0072 71.7500
L125.0072 59.2500
" />
<path d="M88.7572 60.2500
L88.0072 59.7500
" />
<path d="M125.0072 59.0000
L125.0072 59.2500
" />
<path d="M88.0072 59.2500
L88.0072 59.0000
" />
<path d="M88.0072 71.7500
L88.0072 72.0000
" />
<path d="M123.5072 72.0000
L125.0072 72.0000
" />
</g> 
</svg>
